<svg id="visual" viewBox="0 0 900 600" width="900" height="600" xmlns="http://www.w3.org/2000/svg" xmlns:xlink="http://www.w3.org/1999/xlink" version="1.1"><g stroke-width="1" stroke-linejoin="bevel"><path d="M455.8 249.7L465.8 183.1L445 242.3Z" fill="#19435d" stroke="#19435d"></path><path d="M455.8 249.7L486.3 253.2L465.8 183.1Z" fill="#205a7a" stroke="#205a7a"></path><path d="M504.5 141.2L465.8 162.6L465.8 183.1Z" fill="#205a7a" stroke="#205a7a"></path><path d="M399 161.6L394.5 260.7L445 242.3Z" fill="#1d4e6b" stroke="#1d4e6b"></path><path d="M486.3 253.2L530.8 232.6L465.8 183.1Z" fill="#205a7a" stroke="#205a7a"></path><path d="M524.3 153.6L504.5 141.2L465.8 183.1Z" fill="#19435d" stroke="#19435d"></path><path d="M530.8 232.6L524.3 153.6L465.8 183.1Z" fill="#297ea6" stroke="#297ea6"></path><path d="M399 161.6L445 242.3L465.8 183.1Z" fill="#297ea6" stroke="#297ea6"></path><path d="M445 242.3L394.5 260.7L455.8 249.7Z" fill="#0c2435" stroke="#0c2435"></path><path d="M473.8 336.3L537 291.2L486.3 253.2Z" fill="#205a7a" stroke="#205a7a"></path><path d="M469 95.1L399 161.6L465.8 162.6Z" fill="#277297" stroke="#277297"></path><path d="M465.8 162.6L399 161.6L465.8 183.1Z" fill="#297ea6" stroke="#297ea6"></path><path d="M537 291.2L563.8 225.7L530.8 232.6Z" fill="#205a7a" stroke="#205a7a"></path><path d="M530.8 232.6L569.5 220.6L524.3 153.6Z" fill="#19435d" stroke="#19435d"></path><path d="M473.8 336.3L486.3 253.2L455.8 249.7Z" fill="#205a7a" stroke="#205a7a"></path><path d="M486.3 253.2L537 291.2L530.8 232.6Z" fill="#277297" stroke="#277297"></path><path d="M627 246.7L569.5 220.6L563.8 225.7Z" fill="#297ea6" stroke="#297ea6"></path><path d="M563.8 225.7L569.5 220.6L530.8 232.6Z" fill="#1d4e6b" stroke="#1d4e6b"></path><path d="M492.5 74.1L485.3 106.1L504.5 141.2Z" fill="#15384f" stroke="#15384f"></path><path d="M504.5 141.2L485.3 106.1L465.8 162.6Z" fill="#246688" stroke="#246688"></path><path d="M627 246.7L585.3 202.7L569.5 220.6Z" fill="#205a7a" stroke="#205a7a"></path><path d="M569.5 220.6L585.3 202.7L524.3 153.6Z" fill="#246688" stroke="#246688"></path><path d="M597.8 107.5L492.5 74.1L504.5 141.2Z" fill="#112e42" stroke="#112e42"></path><path d="M432 330.7L473.8 336.3L455.8 249.7Z" fill="#15384f" stroke="#15384f"></path><path d="M394.5 260.7L432 330.7L455.8 249.7Z" fill="#0c2435" stroke="#0c2435"></path><path d="M485.3 106.1L469 95.1L465.8 162.6Z" fill="#297ea6" stroke="#297ea6"></path><path d="M365 84.5L368.8 145.2L399 161.6Z" fill="#246688" stroke="#246688"></path><path d="M399 161.6L312 222.2L394.5 260.7Z" fill="#00101c" stroke="#00101c"></path><path d="M473.8 336.3L550.5 313.8L537 291.2Z" fill="#19435d" stroke="#19435d"></path><path d="M614.8 303.2L627 246.7L563.8 225.7Z" fill="#0c2435" stroke="#0c2435"></path><path d="M597.8 107.5L504.5 141.2L524.3 153.6Z" fill="#15384f" stroke="#15384f"></path><path d="M485.3 106.1L492.5 74.1L469 95.1Z" fill="#081a28" stroke="#081a28"></path><path d="M365 84.5L343.3 140.5L368.8 145.2Z" fill="#081a28" stroke="#081a28"></path><path d="M365 84.5L399 161.6L469 95.1Z" fill="#15384f" stroke="#15384f"></path><path d="M368.8 145.2L312 222.2L399 161.6Z" fill="#15384f" stroke="#15384f"></path><path d="M343.3 140.5L312 222.2L368.8 145.2Z" fill="#0c2435" stroke="#0c2435"></path><path d="M394.5 260.7L333.3 350.8L432 330.7Z" fill="#297ea6" stroke="#297ea6"></path><path d="M614.8 303.2L563.8 225.7L537 291.2Z" fill="#297ea6" stroke="#297ea6"></path><path d="M585.3 202.7L597.8 107.5L524.3 153.6Z" fill="#297ea6" stroke="#297ea6"></path><path d="M492.5 74.1L445.3 58.5L469 95.1Z" fill="#297ea6" stroke="#297ea6"></path><path d="M550.5 313.8L614.8 303.2L537 291.2Z" fill="#297ea6" stroke="#297ea6"></path><path d="M577.3 355.3L614.8 303.2L550.5 313.8Z" fill="#081a28" stroke="#081a28"></path><path d="M632.8 124.1L597.8 107.5L585.3 202.7Z" fill="#00101c" stroke="#00101c"></path><path d="M492.5 74.1L492.3 0L445.3 58.5Z" fill="#277297" stroke="#277297"></path><path d="M445.3 58.5L365 84.5L469 95.1Z" fill="#277297" stroke="#277297"></path><path d="M432 330.7L478 388.8L473.8 336.3Z" fill="#15384f" stroke="#15384f"></path><path d="M473.8 336.3L528.5 405.9L550.5 313.8Z" fill="#00101c" stroke="#00101c"></path><path d="M457 427.9L478 388.8L416.8 423.8Z" fill="#246688" stroke="#246688"></path><path d="M528.5 405.9L577.3 355.3L550.5 313.8Z" fill="#112e42" stroke="#112e42"></path><path d="M445.3 58.5L380.5 56.1L365 84.5Z" fill="#277297" stroke="#277297"></path><path d="M614.8 303.2L646.5 278.3L627 246.7Z" fill="#00101c" stroke="#00101c"></path><path d="M692.3 223.7L632.8 124.1L585.3 202.7Z" fill="#246688" stroke="#246688"></path><path d="M624.5 336.7L646.5 278.3L614.8 303.2Z" fill="#081a28" stroke="#081a28"></path><path d="M692.3 223.7L585.3 202.7L627 246.7Z" fill="#246688" stroke="#246688"></path><path d="M632.8 124.1L624 105.5L597.8 107.5Z" fill="#112e42" stroke="#112e42"></path><path d="M581.5 0L492.3 0L492.5 74.1Z" fill="#277297" stroke="#277297"></path><path d="M300 307.7L333.3 350.8L394.5 260.7Z" fill="#19435d" stroke="#19435d"></path><path d="M312 222.2L300 307.7L394.5 260.7Z" fill="#081a28" stroke="#081a28"></path><path d="M577.3 355.3L624.5 336.7L614.8 303.2Z" fill="#297ea6" stroke="#297ea6"></path><path d="M485.5 426.4L528.5 405.9L478 388.8Z" fill="#15384f" stroke="#15384f"></path><path d="M478 388.8L528.5 405.9L473.8 336.3Z" fill="#297ea6" stroke="#297ea6"></path><path d="M577.3 355.3L632.8 392.3L624.5 336.7Z" fill="#112e42" stroke="#112e42"></path><path d="M295.3 392.3L354.5 383.8L333.3 350.8Z" fill="#15384f" stroke="#15384f"></path><path d="M333.3 350.8L354.5 383.8L432 330.7Z" fill="#205a7a" stroke="#205a7a"></path><path d="M528.5 405.9L565.8 396.4L577.3 355.3Z" fill="#246688" stroke="#246688"></path><path d="M268.5 266.3L273.5 279.2L312 222.2Z" fill="#0c2435" stroke="#0c2435"></path><path d="M312 222.2L273.5 279.2L300 307.7Z" fill="#1d4e6b" stroke="#1d4e6b"></path><path d="M300 307.7L295.3 392.3L333.3 350.8Z" fill="#246688" stroke="#246688"></path><path d="M268.5 266.3L312 222.2L197.8 187.6Z" fill="#246688" stroke="#246688"></path><path d="M276.5 141.6L312 222.2L343.3 140.5Z" fill="#205a7a" stroke="#205a7a"></path><path d="M264.3 99.6L343.3 140.5L365 84.5Z" fill="#0c2435" stroke="#0c2435"></path><path d="M264.3 99.6L276.5 141.6L343.3 140.5Z" fill="#00101c" stroke="#00101c"></path><path d="M462.3 428.4L485.5 426.4L478 388.8Z" fill="#297ea6" stroke="#297ea6"></path><path d="M528.5 405.9L536.3 441.8L565.8 396.4Z" fill="#1d4e6b" stroke="#1d4e6b"></path><path d="M416.8 423.8L478 388.8L432 330.7Z" fill="#246688" stroke="#246688"></path><path d="M457 427.9L462.3 428.4L478 388.8Z" fill="#297ea6" stroke="#297ea6"></path><path d="M242 363.8L278.3 307.7L166.8 290.3Z" fill="#1d4e6b" stroke="#1d4e6b"></path><path d="M273.5 279.2L278.3 307.7L300 307.7Z" fill="#00101c" stroke="#00101c"></path><path d="M354.5 383.8L416.8 423.8L432 330.7Z" fill="#277297" stroke="#277297"></path><path d="M581.5 0L492.5 74.1L597.8 107.5Z" fill="#297ea6" stroke="#297ea6"></path><path d="M445.3 58.5L441 0L380.5 56.1Z" fill="#1d4e6b" stroke="#1d4e6b"></path><path d="M492.3 0L441 0L445.3 58.5Z" fill="#297ea6" stroke="#297ea6"></path><path d="M268.3 23.1L264.3 99.6L365 84.5Z" fill="#112e42" stroke="#112e42"></path><path d="M711.3 253.3L692.3 223.7L646.5 278.3Z" fill="#081a28" stroke="#081a28"></path><path d="M646.5 278.3L692.3 223.7L627 246.7Z" fill="#1d4e6b" stroke="#1d4e6b"></path><path d="M661 0L624.5 31.5L668.8 0Z" fill="#00101c" stroke="#00101c"></path><path d="M430 459.4L460.3 447.9L457 427.9Z" fill="#0c2435" stroke="#0c2435"></path><path d="M457 427.9L460.3 447.9L462.3 428.4Z" fill="#205a7a" stroke="#205a7a"></path><path d="M462.3 428.4L460.3 447.9L485.5 426.4Z" fill="#297ea6" stroke="#297ea6"></path><path d="M485.5 426.4L536.3 441.8L528.5 405.9Z" fill="#297ea6" stroke="#297ea6"></path><path d="M460.3 447.9L536.3 441.8L485.5 426.4Z" fill="#297ea6" stroke="#297ea6"></path><path d="M565.8 396.4L632.8 392.3L577.3 355.3Z" fill="#0c2435" stroke="#0c2435"></path><path d="M327.5 -0.5L365 84.5L380.5 56.1Z" fill="#112e42" stroke="#112e42"></path><path d="M276.5 141.6L197.8 187.6L312 222.2Z" fill="#00101c" stroke="#00101c"></path><path d="M608.8 468.5L632.8 392.3L565.8 396.4Z" fill="#0c2435" stroke="#0c2435"></path><path d="M701.5 324.3L711.3 253.3L646.5 278.3Z" fill="#277297" stroke="#277297"></path><path d="M492.3 0L405.8 -13.5L441 0Z" fill="#205a7a" stroke="#205a7a"></path><path d="M441 0L405.8 -13.5L380.5 56.1Z" fill="#297ea6" stroke="#297ea6"></path><path d="M682.3 0L624 105.5L699.5 0Z" fill="#081a28" stroke="#081a28"></path><path d="M624 105.5L624.5 31.5L597.8 107.5Z" fill="#246688" stroke="#246688"></path><path d="M701.5 324.3L646.5 278.3L624.5 336.7Z" fill="#297ea6" stroke="#297ea6"></path><path d="M692.3 223.7L733 158.1L632.8 124.1Z" fill="#297ea6" stroke="#297ea6"></path><path d="M624.5 31.5L581.5 0L597.8 107.5Z" fill="#15384f" stroke="#15384f"></path><path d="M492.3 0L581.5 0L405.8 -13.5Z" fill="#081a28" stroke="#081a28"></path><path d="M416.8 423.8L430 459.4L457 427.9Z" fill="#1d4e6b" stroke="#1d4e6b"></path><path d="M545.5 577.5L608.8 468.5L536.3 441.8Z" fill="#1d4e6b" stroke="#1d4e6b"></path><path d="M361.8 520.9L430 459.4L416.8 423.8Z" fill="#297ea6" stroke="#297ea6"></path><path d="M306.8 432.4L416.8 423.8L354.5 383.8Z" fill="#19435d" stroke="#19435d"></path><path d="M242 363.8L295.3 392.3L278.3 307.7Z" fill="#246688" stroke="#246688"></path><path d="M278.3 307.7L295.3 392.3L300 307.7Z" fill="#0c2435" stroke="#0c2435"></path><path d="M405.8 -13.5L351.8 0L380.5 56.1Z" fill="#19435d" stroke="#19435d"></path><path d="M195 101.6L234.3 132.2L264.3 99.6Z" fill="#112e42" stroke="#112e42"></path><path d="M264.3 99.6L234.3 132.2L276.5 141.6Z" fill="#112e42" stroke="#112e42"></path><path d="M166.8 290.3L278.3 307.7L273.5 279.2Z" fill="#0c2435" stroke="#0c2435"></path><path d="M405.8 -13.5L343.5 0L351.8 0Z" fill="#15384f" stroke="#15384f"></path><path d="M351.8 0L343.5 0L380.5 56.1Z" fill="#081a28" stroke="#081a28"></path><path d="M711 344.3L701.5 324.3L624.5 336.7Z" fill="#1d4e6b" stroke="#1d4e6b"></path><path d="M751.5 233.7L728 219.6L711.3 253.3Z" fill="#246688" stroke="#246688"></path><path d="M711.3 253.3L728 219.6L692.3 223.7Z" fill="#15384f" stroke="#15384f"></path><path d="M405.8 -13.5L327.5 -0.5L343.5 0Z" fill="#246688" stroke="#246688"></path><path d="M343.5 0L327.5 -0.5L380.5 56.1Z" fill="#081a28" stroke="#081a28"></path><path d="M701.5 324.3L732 272.2L711.3 253.3Z" fill="#277297" stroke="#277297"></path><path d="M295.3 392.3L306.8 432.4L354.5 383.8Z" fill="#00101c" stroke="#00101c"></path><path d="M800.3 203.6L733 158.1L728 219.6Z" fill="#15384f" stroke="#15384f"></path><path d="M728 219.6L733 158.1L692.3 223.7Z" fill="#00101c" stroke="#00101c"></path><path d="M208 377.4L242 363.8L166.8 290.3Z" fill="#00101c" stroke="#00101c"></path><path d="M295.3 392.3L294.5 427.9L306.8 432.4Z" fill="#112e42" stroke="#112e42"></path><path d="M701.5 324.3L765.5 354.8L732 272.2Z" fill="#277297" stroke="#277297"></path><path d="M699 389.4L711 344.3L624.5 336.7Z" fill="#205a7a" stroke="#205a7a"></path><path d="M253.5 424.4L294.5 427.9L295.3 392.3Z" fill="#1d4e6b" stroke="#1d4e6b"></path><path d="M234.3 132.2L197.8 187.6L276.5 141.6Z" fill="#1d4e6b" stroke="#1d4e6b"></path><path d="M327.5 -0.5L268.3 23.1L365 84.5Z" fill="#081a28" stroke="#081a28"></path><path d="M234.3 132.2L175.5 132.6L197.8 187.6Z" fill="#19435d" stroke="#19435d"></path><path d="M670.8 450.8L681 402.8L632.8 392.3Z" fill="#112e42" stroke="#112e42"></path><path d="M632.8 392.3L699 389.4L624.5 336.7Z" fill="#0c2435" stroke="#0c2435"></path><path d="M808.3 314.8L751.5 233.7L732 272.2Z" fill="#15384f" stroke="#15384f"></path><path d="M732 272.2L751.5 233.7L711.3 253.3Z" fill="#19435d" stroke="#19435d"></path><path d="M681 402.8L699 389.4L632.8 392.3Z" fill="#15384f" stroke="#15384f"></path><path d="M711 344.3L765.5 354.8L701.5 324.3Z" fill="#205a7a" stroke="#205a7a"></path><path d="M536.3 441.8L608.8 468.5L565.8 396.4Z" fill="#00101c" stroke="#00101c"></path><path d="M681 402.8L744 474.9L699 389.4Z" fill="#297ea6" stroke="#297ea6"></path><path d="M451.3 522.5L536.3 441.8L460.3 447.9Z" fill="#1d4e6b" stroke="#1d4e6b"></path><path d="M668.8 0L624.5 31.5L682.3 0Z" fill="#1d4e6b" stroke="#1d4e6b"></path><path d="M624.5 31.5L661 0L581.5 0Z" fill="#081a28" stroke="#081a28"></path><path d="M581.5 0L661 0L405.8 -13.5Z" fill="#081a28" stroke="#081a28"></path><path d="M682.3 0L624.5 31.5L624 105.5Z" fill="#1d4e6b" stroke="#1d4e6b"></path><path d="M661 0L668.8 0L405.8 -13.5Z" fill="#112e42" stroke="#112e42"></path><path d="M253.5 424.4L306.8 464.5L294.5 427.9Z" fill="#15384f" stroke="#15384f"></path><path d="M294.5 427.9L306.8 464.5L306.8 432.4Z" fill="#277297" stroke="#277297"></path><path d="M306.8 432.4L306.8 464.5L416.8 423.8Z" fill="#112e42" stroke="#112e42"></path><path d="M430 459.4L451.3 522.5L460.3 447.9Z" fill="#15384f" stroke="#15384f"></path><path d="M225 25.1L195 101.6L264.3 99.6Z" fill="#081a28" stroke="#081a28"></path><path d="M252.8 423.8L295.3 392.3L242 363.8Z" fill="#081a28" stroke="#081a28"></path><path d="M252.8 423.8L253.5 424.4L295.3 392.3Z" fill="#112e42" stroke="#112e42"></path><path d="M237.8 415.9L252.8 423.8L242 363.8Z" fill="#081a28" stroke="#081a28"></path><path d="M248.8 486.4L322.3 517.4L306.8 464.5Z" fill="#0c2435" stroke="#0c2435"></path><path d="M699.5 0L624 105.5L742.3 18.5Z" fill="#081a28" stroke="#081a28"></path><path d="M668.8 0L682.3 0L405.8 -13.5Z" fill="#277297" stroke="#277297"></path><path d="M208 377.4L237.8 415.9L242 363.8Z" fill="#0c2435" stroke="#0c2435"></path><path d="M252.8 423.8L215 437.9L253.5 424.4Z" fill="#205a7a" stroke="#205a7a"></path><path d="M361.8 520.9L451.3 522.5L430 459.4Z" fill="#277297" stroke="#277297"></path><path d="M195 101.6L175.5 132.6L234.3 132.2Z" fill="#246688" stroke="#246688"></path><path d="M166.8 290.3L273.5 279.2L268.5 266.3Z" fill="#081a28" stroke="#081a28"></path><path d="M166.8 290.3L268.5 266.3L197.8 187.6Z" fill="#277297" stroke="#277297"></path><path d="M677 498.5L670.8 450.8L608.8 468.5Z" fill="#0c2435" stroke="#0c2435"></path><path d="M608.8 468.5L670.8 450.8L632.8 392.3Z" fill="#112e42" stroke="#112e42"></path><path d="M268.3 23.1L225 25.1L264.3 99.6Z" fill="#1d4e6b" stroke="#1d4e6b"></path><path d="M195 101.6L168.8 54.1L175.5 132.6Z" fill="#1d4e6b" stroke="#1d4e6b"></path><path d="M223.8 -13.5L225 25.1L268.3 23.1Z" fill="#112e42" stroke="#112e42"></path><path d="M134.8 213.7L166.8 290.3L197.8 187.6Z" fill="#297ea6" stroke="#297ea6"></path><path d="M742.3 18.5L624 105.5L632.8 124.1Z" fill="#277297" stroke="#277297"></path><path d="M682.3 0L699.5 0L405.8 -13.5Z" fill="#297ea6" stroke="#297ea6"></path><path d="M742.3 18.5L632.8 124.1L733 158.1Z" fill="#205a7a" stroke="#205a7a"></path><path d="M789.3 154.2L778.8 136.5L733 158.1Z" fill="#1d4e6b" stroke="#1d4e6b"></path><path d="M322.3 517.4L361.8 520.9L306.8 464.5Z" fill="#15384f" stroke="#15384f"></path><path d="M306.8 464.5L361.8 520.9L416.8 423.8Z" fill="#297ea6" stroke="#297ea6"></path><path d="M134.8 213.7L85.3 174.1L89.3 208.2Z" fill="#1d4e6b" stroke="#1d4e6b"></path><path d="M175.5 132.6L147.5 193.2L197.8 187.6Z" fill="#1d4e6b" stroke="#1d4e6b"></path><path d="M454.3 600L465 541.5L451.3 522.5Z" fill="#1d4e6b" stroke="#1d4e6b"></path><path d="M451.3 522.5L465 541.5L536.3 441.8Z" fill="#205a7a" stroke="#205a7a"></path><path d="M800.3 203.6L789.3 154.2L733 158.1Z" fill="#081a28" stroke="#081a28"></path><path d="M778.8 136.5L742.3 18.5L733 158.1Z" fill="#00101c" stroke="#00101c"></path><path d="M800.3 203.6L728 219.6L751.5 233.7Z" fill="#112e42" stroke="#112e42"></path><path d="M783.5 406.4L765.5 354.8L699 389.4Z" fill="#0c2435" stroke="#0c2435"></path><path d="M699 389.4L765.5 354.8L711 344.3Z" fill="#081a28" stroke="#081a28"></path><path d="M808.3 314.8L800.3 203.6L751.5 233.7Z" fill="#297ea6" stroke="#297ea6"></path><path d="M248.8 486.4L306.8 464.5L253.5 424.4Z" fill="#297ea6" stroke="#297ea6"></path><path d="M369.5 600L454.3 600L451.3 522.5Z" fill="#112e42" stroke="#112e42"></path><path d="M134.8 213.7L147.5 193.2L85.3 174.1Z" fill="#246688" stroke="#246688"></path><path d="M147.5 193.2L134.8 213.7L197.8 187.6Z" fill="#15384f" stroke="#15384f"></path><path d="M208 377.4L215 437.9L237.8 415.9Z" fill="#297ea6" stroke="#297ea6"></path><path d="M237.8 415.9L215 437.9L252.8 423.8Z" fill="#19435d" stroke="#19435d"></path><path d="M153 401.3L215 437.9L208 377.4Z" fill="#15384f" stroke="#15384f"></path><path d="M153 401.3L208 377.4L166.8 290.3Z" fill="#15384f" stroke="#15384f"></path><path d="M798.3 77.1L742.3 18.5L778.8 136.5Z" fill="#246688" stroke="#246688"></path><path d="M327.5 -0.5L223.8 -13.5L268.3 23.1Z" fill="#0c2435" stroke="#0c2435"></path><path d="M225 25.1L168.8 54.1L195 101.6Z" fill="#205a7a" stroke="#205a7a"></path><path d="M405.8 -13.5L223.8 -13.5L327.5 -0.5Z" fill="#1d4e6b" stroke="#1d4e6b"></path><path d="M223.8 -13.5L211 0L225 25.1Z" fill="#297ea6" stroke="#297ea6"></path><path d="M783.5 406.4L781.8 349.3L765.5 354.8Z" fill="#0c2435" stroke="#0c2435"></path><path d="M765.5 354.8L781.8 349.3L732 272.2Z" fill="#081a28" stroke="#081a28"></path><path d="M223.8 -13.5L207.8 0L211 0Z" fill="#0c2435" stroke="#0c2435"></path><path d="M211 0L207.8 0L225 25.1Z" fill="#1d4e6b" stroke="#1d4e6b"></path><path d="M161.5 35.5L168.8 54.1L225 25.1Z" fill="#081a28" stroke="#081a28"></path><path d="M215 437.9L248.8 486.4L253.5 424.4Z" fill="#297ea6" stroke="#297ea6"></path><path d="M652.3 533.5L677 498.5L608.8 468.5Z" fill="#297ea6" stroke="#297ea6"></path><path d="M744 474.9L783.5 406.4L699 389.4Z" fill="#112e42" stroke="#112e42"></path><path d="M134.8 213.7L125.5 277.3L166.8 290.3Z" fill="#19435d" stroke="#19435d"></path><path d="M223.8 -13.5L195.3 0L207.8 0Z" fill="#0c2435" stroke="#0c2435"></path><path d="M207.8 0L195.3 0L225 25.1Z" fill="#19435d" stroke="#19435d"></path><path d="M855.8 311.7L808.3 314.8L781.8 349.3Z" fill="#297ea6" stroke="#297ea6"></path><path d="M781.8 349.3L808.3 314.8L732 272.2Z" fill="#112e42" stroke="#112e42"></path><path d="M812.5 82.1L778.8 136.5L855.8 137.1Z" fill="#112e42" stroke="#112e42"></path><path d="M812.5 82.1L798.3 77.1L778.8 136.5Z" fill="#0c2435" stroke="#0c2435"></path><path d="M778.8 136.5L789.3 154.2L855.8 137.1Z" fill="#205a7a" stroke="#205a7a"></path><path d="M223.8 -13.5L186.5 0L195.3 0Z" fill="#0c2435" stroke="#0c2435"></path><path d="M195.3 0L161.5 35.5L225 25.1Z" fill="#0c2435" stroke="#0c2435"></path><path d="M186.5 0L161.5 35.5L195.3 0Z" fill="#1d4e6b" stroke="#1d4e6b"></path><path d="M92.3 138.5L147.5 193.2L175.5 132.6Z" fill="#15384f" stroke="#15384f"></path><path d="M134.8 213.7L113.8 257.2L125.5 277.3Z" fill="#246688" stroke="#246688"></path><path d="M85.3 366.4L153 401.3L166.8 290.3Z" fill="#297ea6" stroke="#297ea6"></path><path d="M89.3 208.2L113.8 257.2L134.8 213.7Z" fill="#1d4e6b" stroke="#1d4e6b"></path><path d="M545.5 577.5L652.3 533.5L608.8 468.5Z" fill="#246688" stroke="#246688"></path><path d="M744 474.9L681 402.8L670.8 450.8Z" fill="#277297" stroke="#277297"></path><path d="M312.3 547.9L330.5 555.5L322.3 517.4Z" fill="#205a7a" stroke="#205a7a"></path><path d="M322.3 517.4L330.5 555.5L361.8 520.9Z" fill="#19435d" stroke="#19435d"></path><path d="M465 541.5L545.5 577.5L536.3 441.8Z" fill="#00101c" stroke="#00101c"></path><path d="M275.3 558.5L312.3 547.9L322.3 517.4Z" fill="#112e42" stroke="#112e42"></path><path d="M744 474.9L670.8 450.8L677 498.5Z" fill="#19435d" stroke="#19435d"></path><path d="M93.3 292.3L166.8 290.3L125.5 277.3Z" fill="#277297" stroke="#277297"></path><path d="M215 437.9L140.8 501.5L248.8 486.4Z" fill="#00101c" stroke="#00101c"></path><path d="M248.8 486.4L275.3 558.5L322.3 517.4Z" fill="#19435d" stroke="#19435d"></path><path d="M454.3 600L545.5 577.5L465 541.5Z" fill="#297ea6" stroke="#297ea6"></path><path d="M855.5 147.2L789.3 154.2L800.3 203.6Z" fill="#00101c" stroke="#00101c"></path><path d="M798.3 77.1L799.5 48.5L742.3 18.5Z" fill="#00101c" stroke="#00101c"></path><path d="M812.5 82.1L799.5 48.5L798.3 77.1Z" fill="#205a7a" stroke="#205a7a"></path><path d="M186.5 0L166 0.5L161.5 35.5Z" fill="#277297" stroke="#277297"></path><path d="M92.3 138.5L175.5 132.6L168.8 54.1Z" fill="#297ea6" stroke="#297ea6"></path><path d="M223.8 -13.5L166 0.5L186.5 0Z" fill="#1d4e6b" stroke="#1d4e6b"></path><path d="M700.3 513.4L701.8 511.9L677 498.5Z" fill="#0c2435" stroke="#0c2435"></path><path d="M652.3 533.5L700.3 513.4L677 498.5Z" fill="#1d4e6b" stroke="#1d4e6b"></path><path d="M758.5 473.5L744 474.9L701.8 511.9Z" fill="#205a7a" stroke="#205a7a"></path><path d="M701.8 511.9L744 474.9L677 498.5Z" fill="#15384f" stroke="#15384f"></path><path d="M92.3 138.5L168.8 54.1L161.5 35.5Z" fill="#19435d" stroke="#19435d"></path><path d="M113.8 257.2L93.3 292.3L125.5 277.3Z" fill="#0c2435" stroke="#0c2435"></path><path d="M369.5 600L451.3 522.5L361.8 520.9Z" fill="#205a7a" stroke="#205a7a"></path><path d="M89.3 208.2L93.3 292.3L113.8 257.2Z" fill="#15384f" stroke="#15384f"></path><path d="M838.8 565.5L758.5 473.5L813.5 600Z" fill="#277297" stroke="#277297"></path><path d="M744 474.9L758.5 473.5L783.5 406.4Z" fill="#277297" stroke="#277297"></path><path d="M87.3 0L92.3 138.5L161.5 35.5Z" fill="#19435d" stroke="#19435d"></path><path d="M92.3 138.5L85.3 174.1L147.5 193.2Z" fill="#1d4e6b" stroke="#1d4e6b"></path><path d="M0 251.3L26.5 310.8L93.3 292.3Z" fill="#00101c" stroke="#00101c"></path><path d="M652.3 533.5L648.3 561.9L700.3 513.4Z" fill="#0c2435" stroke="#0c2435"></path><path d="M700.3 513.4L705.8 600L701.8 511.9Z" fill="#081a28" stroke="#081a28"></path><path d="M545.5 577.5L648.3 561.9L652.3 533.5Z" fill="#0c2435" stroke="#0c2435"></path><path d="M644 600L648.3 561.9L545.5 577.5Z" fill="#246688" stroke="#246688"></path><path d="M856.5 147.6L855.5 147.2L871.8 207.2Z" fill="#1d4e6b" stroke="#1d4e6b"></path><path d="M812.5 82.1L843.8 0L799.5 48.5Z" fill="#19435d" stroke="#19435d"></path><path d="M855.5 147.2L800.3 203.6L871.8 207.2Z" fill="#277297" stroke="#277297"></path><path d="M310.8 600L337.3 600L330.5 555.5Z" fill="#15384f" stroke="#15384f"></path><path d="M330.5 555.5L369.5 600L361.8 520.9Z" fill="#0c2435" stroke="#0c2435"></path><path d="M226.8 600L275.3 558.5L248.8 486.4Z" fill="#205a7a" stroke="#205a7a"></path><path d="M855.8 311.7L800.3 203.6L808.3 314.8Z" fill="#297ea6" stroke="#297ea6"></path><path d="M855.5 147.2L855.8 137.1L789.3 154.2Z" fill="#19435d" stroke="#19435d"></path><path d="M856.5 147.6L855.8 137.1L855.5 147.2Z" fill="#1d4e6b" stroke="#1d4e6b"></path><path d="M362 600L369.5 600L330.5 555.5Z" fill="#1d4e6b" stroke="#1d4e6b"></path><path d="M900 345.8L781.8 349.3L783.5 406.4Z" fill="#081a28" stroke="#081a28"></path><path d="M900 345.8L855.8 311.7L781.8 349.3Z" fill="#15384f" stroke="#15384f"></path><path d="M337.3 600L362 600L330.5 555.5Z" fill="#0c2435" stroke="#0c2435"></path><path d="M92.3 138.5L73.3 180.6L85.3 174.1Z" fill="#15384f" stroke="#15384f"></path><path d="M85.3 174.1L73.3 180.6L89.3 208.2Z" fill="#0c2435" stroke="#0c2435"></path><path d="M855.8 311.7L871.8 207.2L800.3 203.6Z" fill="#205a7a" stroke="#205a7a"></path><path d="M856.5 147.6L900 130.5L855.8 137.1Z" fill="#19435d" stroke="#19435d"></path><path d="M310.8 600L330.5 555.5L312.3 547.9Z" fill="#0c2435" stroke="#0c2435"></path><path d="M85.3 366.4L140.5 462.5L153 401.3Z" fill="#15384f" stroke="#15384f"></path><path d="M153 401.3L140.5 462.5L215 437.9Z" fill="#277297" stroke="#277297"></path><path d="M93.3 292.3L85.3 366.4L166.8 290.3Z" fill="#297ea6" stroke="#297ea6"></path><path d="M34.5 350.7L85.3 366.4L93.3 292.3Z" fill="#1d4e6b" stroke="#1d4e6b"></path><path d="M226.8 600L310.8 600L275.3 558.5Z" fill="#297ea6" stroke="#297ea6"></path><path d="M275.3 558.5L310.8 600L312.3 547.9Z" fill="#00101c" stroke="#00101c"></path><path d="M454.3 600L644 600L545.5 577.5Z" fill="#081a28" stroke="#081a28"></path><path d="M648.3 561.9L691.3 600L700.3 513.4Z" fill="#1d4e6b" stroke="#1d4e6b"></path><path d="M644 600L649.5 600L648.3 561.9Z" fill="#297ea6" stroke="#297ea6"></path><path d="M928.8 246.6L900 196.6L871.8 207.2Z" fill="#081a28" stroke="#081a28"></path><path d="M871.8 207.2L900 188.7L856.5 147.6Z" fill="#15384f" stroke="#15384f"></path><path d="M900 30.1L843.8 0L812.5 82.1Z" fill="#112e42" stroke="#112e42"></path><path d="M900 196.6L900 188.7L871.8 207.2Z" fill="#00101c" stroke="#00101c"></path><path d="M900 130.5L812.5 82.1L855.8 137.1Z" fill="#246688" stroke="#246688"></path><path d="M799.5 48.5L843.8 0L742.3 18.5Z" fill="#205a7a" stroke="#205a7a"></path><path d="M742.3 18.5L843.8 0L699.5 0Z" fill="#19435d" stroke="#19435d"></path><path d="M699.5 0L843.8 0L405.8 -13.5Z" fill="#15384f" stroke="#15384f"></path><path d="M900 188.7L900 162.2L856.5 147.6Z" fill="#1d4e6b" stroke="#1d4e6b"></path><path d="M900 345.8L900 275.3L855.8 311.7Z" fill="#112e42" stroke="#112e42"></path><path d="M855.8 311.7L900 275.3L871.8 207.2Z" fill="#277297" stroke="#277297"></path><path d="M134.5 520.4L140.8 501.5L90.3 512.9Z" fill="#1d4e6b" stroke="#1d4e6b"></path><path d="M140.5 462.5L140.8 501.5L215 437.9Z" fill="#15384f" stroke="#15384f"></path><path d="M900 162.2L900 130.5L856.5 147.6Z" fill="#277297" stroke="#277297"></path><path d="M134.5 520.4L141.5 510.9L140.8 501.5Z" fill="#112e42" stroke="#112e42"></path><path d="M140.8 501.5L141.5 510.9L248.8 486.4Z" fill="#277297" stroke="#277297"></path><path d="M223.8 -13.5L87.3 0L166 0.5Z" fill="#0c2435" stroke="#0c2435"></path><path d="M166 0.5L87.3 0L161.5 35.5Z" fill="#112e42" stroke="#112e42"></path><path d="M0 81.6L-7.7 200.7L73.3 180.6Z" fill="#246688" stroke="#246688"></path><path d="M649.5 600L691.3 600L648.3 561.9Z" fill="#112e42" stroke="#112e42"></path><path d="M758.5 473.5L841.5 460.9L783.5 406.4Z" fill="#246688" stroke="#246688"></path><path d="M838.8 565.5L841.5 460.9L758.5 473.5Z" fill="#277297" stroke="#277297"></path><path d="M841.5 460.9L900 345.8L783.5 406.4Z" fill="#112e42" stroke="#112e42"></path><path d="M691.3 600L705.8 600L700.3 513.4Z" fill="#205a7a" stroke="#205a7a"></path><path d="M90.3 512.9L140.8 501.5L140.5 462.5Z" fill="#19435d" stroke="#19435d"></path><path d="M191.5 600L226.8 600L165 583.5Z" fill="#277297" stroke="#277297"></path><path d="M226.8 600L248.8 486.4L165 583.5Z" fill="#00101c" stroke="#00101c"></path><path d="M0 251.3L89.3 208.2L-7.7 200.7Z" fill="#246688" stroke="#246688"></path><path d="M0 251.3L93.3 292.3L89.3 208.2Z" fill="#1d4e6b" stroke="#1d4e6b"></path><path d="M0 470.9L90.3 512.9L140.5 462.5Z" fill="#297ea6" stroke="#297ea6"></path><path d="M26.5 310.8L34.5 350.7L93.3 292.3Z" fill="#246688" stroke="#246688"></path><path d="M900 188.7L928.8 246.6L900 162.2Z" fill="#277297" stroke="#277297"></path><path d="M900 162.2L928.8 246.6L900 130.5Z" fill="#081a28" stroke="#081a28"></path><path d="M900 196.6L928.8 246.6L900 188.7Z" fill="#112e42" stroke="#112e42"></path><path d="M900 275.3L928.8 246.6L871.8 207.2Z" fill="#1d4e6b" stroke="#1d4e6b"></path><path d="M900 345.8L928.8 246.6L900 275.3Z" fill="#1d4e6b" stroke="#1d4e6b"></path><path d="M87.3 0L44.5 24.1L92.3 138.5Z" fill="#297ea6" stroke="#297ea6"></path><path d="M928.8 246.6L900 30.1L900 130.5Z" fill="#19435d" stroke="#19435d"></path><path d="M900 130.5L900 30.1L812.5 82.1Z" fill="#081a28" stroke="#081a28"></path><path d="M-7.7 200.7L89.3 208.2L73.3 180.6Z" fill="#205a7a" stroke="#205a7a"></path><path d="M26.5 310.8L0 325.8L34.5 350.7Z" fill="#1d4e6b" stroke="#1d4e6b"></path><path d="M165 583.5L248.8 486.4L141.5 510.9Z" fill="#297ea6" stroke="#297ea6"></path><path d="M0 251.3L0 289.2L26.5 310.8Z" fill="#205a7a" stroke="#205a7a"></path><path d="M134.5 520.4L165 583.5L141.5 510.9Z" fill="#15384f" stroke="#15384f"></path><path d="M92.3 582.5L165 583.5L134.5 520.4Z" fill="#15384f" stroke="#15384f"></path><path d="M0 81.6L73.3 180.6L92.3 138.5Z" fill="#112e42" stroke="#112e42"></path><path d="M0 251.3L-7.7 200.7L0 289.2Z" fill="#297ea6" stroke="#297ea6"></path><path d="M0 289.2L0 311.7L26.5 310.8Z" fill="#081a28" stroke="#081a28"></path><path d="M0 470.9L140.5 462.5L85.3 366.4Z" fill="#19435d" stroke="#19435d"></path><path d="M-9.7 394.8L0 311.7L0 289.2Z" fill="#246688" stroke="#246688"></path><path d="M0 385.4L85.3 366.4L34.5 350.7Z" fill="#00101c" stroke="#00101c"></path><path d="M928.8 246.6L900 0L900 30.1Z" fill="#277297" stroke="#277297"></path><path d="M900 30.1L900 0L843.8 0Z" fill="#0c2435" stroke="#0c2435"></path><path d="M843.8 0L900 0L405.8 -13.5Z" fill="#297ea6" stroke="#297ea6"></path><path d="M-9.7 394.8L0 325.8L0 311.7Z" fill="#277297" stroke="#277297"></path><path d="M0 311.7L0 325.8L26.5 310.8Z" fill="#00101c" stroke="#00101c"></path><path d="M841.5 460.9L910.8 425.8L900 345.8Z" fill="#00101c" stroke="#00101c"></path><path d="M900 345.8L911.8 426.4L928.8 246.6Z" fill="#00101c" stroke="#00101c"></path><path d="M911.8 426.4L910.8 425.8L900 451.9Z" fill="#112e42" stroke="#112e42"></path><path d="M900 451.9L910.8 425.8L841.5 460.9Z" fill="#0c2435" stroke="#0c2435"></path><path d="M910.8 425.8L911.8 426.4L900 345.8Z" fill="#205a7a" stroke="#205a7a"></path><path d="M44.5 24.1L0 81.6L92.3 138.5Z" fill="#00101c" stroke="#00101c"></path><path d="M900 458.5L900 451.9L841.5 460.9Z" fill="#1d4e6b" stroke="#1d4e6b"></path><path d="M92.3 582.5L162 600L165 583.5Z" fill="#277297" stroke="#277297"></path><path d="M165 583.5L162 600L191.5 600Z" fill="#112e42" stroke="#112e42"></path><path d="M44.5 24.1L0 74.5L0 81.6Z" fill="#112e42" stroke="#112e42"></path><path d="M0 81.6L0 74.5L-7.7 200.7Z" fill="#297ea6" stroke="#297ea6"></path><path d="M900 503.4L900 458.5L841.5 460.9Z" fill="#081a28" stroke="#081a28"></path><path d="M900 451.9L926.8 477.9L911.8 426.4Z" fill="#205a7a" stroke="#205a7a"></path><path d="M44.5 24.1L0 52.1L0 74.5Z" fill="#00101c" stroke="#00101c"></path><path d="M0 74.5L0 52.1L-7.7 200.7Z" fill="#081a28" stroke="#081a28"></path><path d="M-9.7 394.8L0 385.4L0 325.8Z" fill="#205a7a" stroke="#205a7a"></path><path d="M0 325.8L0 385.4L34.5 350.7Z" fill="#0c2435" stroke="#0c2435"></path><path d="M813.5 600L758.5 473.5L701.8 511.9Z" fill="#1d4e6b" stroke="#1d4e6b"></path><path d="M0 385.4L0 470.9L85.3 366.4Z" fill="#15384f" stroke="#15384f"></path><path d="M90.3 512.9L92.3 582.5L134.5 520.4Z" fill="#081a28" stroke="#081a28"></path><path d="M-7.7 200.7L-9.7 394.8L0 289.2Z" fill="#277297" stroke="#277297"></path><path d="M705.8 600L813.5 600L701.8 511.9Z" fill="#297ea6" stroke="#297ea6"></path><path d="M838.8 565.5L900 503.4L841.5 460.9Z" fill="#00101c" stroke="#00101c"></path><path d="M900 458.5L926.8 477.9L900 451.9Z" fill="#277297" stroke="#277297"></path><path d="M900 600L900 503.4L838.8 565.5Z" fill="#246688" stroke="#246688"></path><path d="M87.3 0L0 0L44.5 24.1Z" fill="#246688" stroke="#246688"></path><path d="M44.5 24.1L0 0L0 52.1Z" fill="#1d4e6b" stroke="#1d4e6b"></path><path d="M0 52.1L0 0L-7.7 200.7Z" fill="#00101c" stroke="#00101c"></path><path d="M223.8 -13.5L0 0L87.3 0Z" fill="#15384f" stroke="#15384f"></path><path d="M0 600L92.3 582.5L90.3 512.9Z" fill="#15384f" stroke="#15384f"></path><path d="M905.8 600L926.8 477.9L900 503.4Z" fill="#205a7a" stroke="#205a7a"></path><path d="M900 503.4L926.8 477.9L900 458.5Z" fill="#277297" stroke="#277297"></path><path d="M911.8 426.4L926.8 477.9L928.8 246.6Z" fill="#1d4e6b" stroke="#1d4e6b"></path><path d="M-9.7 394.8L0 470.9L0 385.4Z" fill="#205a7a" stroke="#205a7a"></path><path d="M-9.7 394.8L0 497.5L0 470.9Z" fill="#246688" stroke="#246688"></path><path d="M0 470.9L0 497.5L90.3 512.9Z" fill="#00101c" stroke="#00101c"></path><path d="M813.5 600L900 600L838.8 565.5Z" fill="#297ea6" stroke="#297ea6"></path><path d="M900 600L905.8 600L900 503.4Z" fill="#205a7a" stroke="#205a7a"></path><path d="M-15.7 600L0 600L0 497.5Z" fill="#00101c" stroke="#00101c"></path><path d="M0 497.5L0 600L90.3 512.9Z" fill="#297ea6" stroke="#297ea6"></path><path d="M92.3 582.5L0 600L162 600Z" fill="#00101c" stroke="#00101c"></path><path d="M-7.7 200.7L-15.7 600L-9.7 394.8Z" fill="#205a7a" stroke="#205a7a"></path><path d="M-9.7 394.8L-15.7 600L0 497.5Z" fill="#00101c" stroke="#00101c"></path></g></svg>